<svg width="150" height="175" viewBox="0 0 150 175" fill="none" xmlns="http://www.w3.org/2000/svg">
<g id="Female">
<g clip-path="url(#clip0_132_11)">
<rect width="150" height="175" rx="12" fill="white"/>
<g id="Rectangle 38" filter="url(#filter0_d_132_11)">
<path d="M0 12C0 5.37258 5.37258 -3.8147e-06 12 -3.8147e-06H138C144.627 -3.8147e-06 150 5.37258 150 12V163C150 169.627 144.627 175 138 175H12C5.37258 175 0 169.627 0 163V12Z" fill="#151919"/>
</g>
<path id="path7" d="M49.0119 91.2542L49.2533 91.5721L48.9967 91.8779L37.3751 105.728L37.0537 106.111L36.6707 105.79L3.32693 77.8109L-14.6919 99.2848L18.6519 127.264L19.0349 127.585L18.7135 127.968L-8.90161 160.878L11.8848 178.32L39.5 145.41L39.8213 145.027L40.2044 145.348L73.6342 173.399L91.653 151.925L58.2232 123.874L57.8402 123.553L58.1615 123.17L69.7831 109.32L70.0342 109.021L70.3853 109.192C75.0759 111.479 80.376 113.225 86.3693 114.419L86.3693 114.419L86.3815 114.422L86.4974 114.448C97.1771 116.515 108.041 115.516 118.823 111.51L118.925 111.464L118.937 111.458L118.95 111.453C129.613 107.333 138.622 100.93 145.792 92.3842C152.763 84.0768 157.437 74.3638 159.746 63.405L159.745 63.3944L159.74 63.3261L159.754 63.2589C162.038 52.0424 161.211 41.073 157.414 30.6095C153.669 20.3362 147.634 11.6737 139.53 4.87329C131.471 -1.88933 121.898 -6.24834 111.048 -8.14509L111.045 -8.14558C99.9988 -10.1395 89.0598 -8.96998 78.4527 -4.73656L78.4511 -4.73593C68.1077 -0.648576 59.3326 5.64929 52.3471 13.9743C41.6615 26.7088 36.5881 41.5078 37.3267 57.9667L37.3268 57.9675C37.876 70.6662 41.7993 81.7534 49.0119 91.2542ZM105.596 18.821L105.596 18.8209L105.606 18.8232L105.721 18.8491C112.062 20.0402 117.282 22.4204 121.783 26.1975C126.244 29.9404 129.537 34.7055 131.897 40.817L131.898 40.8199C134.077 46.5676 134.536 52.4148 133.259 58.6358L133.259 58.6367C131.921 65.0917 129.324 70.5825 125.356 75.3116C118.979 82.911 111.152 87.0965 101.513 88.1337L101.51 88.1339C91.8248 89.1347 83.5444 86.5708 76.2559 80.455C68.8802 74.2661 64.9987 66.5477 64.3083 56.9175L64.3082 56.9155C63.65 47.1635 66.3744 38.7723 72.7521 31.1717C76.7202 26.4427 81.6766 22.9313 87.8014 20.4936L87.8022 20.4933C93.707 18.1551 99.5474 17.5912 105.596 18.821Z" stroke="#FFFAFA"/>
</g>
</g>
<defs>
<filter id="filter0_d_132_11" x="-4" y="0" width="158" height="183" filterUnits="userSpaceOnUse" color-interpolation-filters="sRGB">
<feFlood flood-opacity="0" result="BackgroundImageFix"/>
<feColorMatrix in="SourceAlpha" type="matrix" values="0 0 0 0 0 0 0 0 0 0 0 0 0 0 0 0 0 0 127 0" result="hardAlpha"/>
<feOffset dy="4"/>
<feGaussianBlur stdDeviation="2"/>
<feComposite in2="hardAlpha" operator="out"/>
<feColorMatrix type="matrix" values="0 0 0 0 0 0 0 0 0 0 0 0 0 0 0 0 0 0 0.25 0"/>
<feBlend mode="normal" in2="BackgroundImageFix" result="effect1_dropShadow_132_11"/>
<feBlend mode="normal" in="SourceGraphic" in2="effect1_dropShadow_132_11" result="shape"/>
</filter>
<clipPath id="clip0_132_11">
<rect width="150" height="175" rx="12" fill="white"/>
</clipPath>
</defs>
</svg>
